# xmcd CD database file
#
# Track frame offsets:
#	150
#	26869
#	44123
#	64635
#	89013
#	108423
#	145666
#	171757
#	176388
#	216070
#	241057
#	264121
#	284636
#
# Disc length: 3910 seconds
#
# Revision: 0
# Processed by: cddbd v1.5.2PL0 Copyright (c) Steve Scherf et al.
# Submitted via: CDex 1.51
#
DISCID=bb0f440d
DTITLE=Tord Gustavsen Trio - Changing Places
DYEAR=2003
DGENRE=Jazz
TTITLE0=Deep As Love
TTITLE1=Graceful Touch
TTITLE2=Ign
TTITLE3=Melted Matter
TTITLE4=At A Glance
TTITLE5=Song Of Yearning
TTITLE6=Turning Point
TTITLE7=Interlude
TTITLE8=Where Breathing Starts
TTITLE9=Going Places
TTITLE10=Your Eyes
TTITLE11=Gracefull Touch (Alternate Take)
TTITLE12=Song Of Yearning (Piano solo)
EXTD=YEAR: 2003
EXTT0=
EXTT1=
EXTT2=
EXTT3=
EXTT4=
EXTT5=
EXTT6=
EXTT7=
EXTT8=
EXTT9=
EXTT10=
EXTT11=
EXTT12=
PLAYORDER=
